# xmcd
#
# Track frame offsets: 
#        150
#        17415
#        33635
#        59172
#        74732
#        88192
#        103505
#        116822
#        140062
#        167052
#        181087
#        192547
#
# Disc length: 2813 seconds
#
# Revision: 3
# Processed by: cddbd v1.4PL0 Copyright (c) Steve Scherf et al.
# Submitted via: ExactAudioCopy v0.90b3
#
DISCID=b60afb0c
DTITLE=Leonard Cohen - The Best of
DYEAR=1975
DGENRE=Blues
TTITLE0=Suzanne
TTITLE1=Sisters of Mercy
TTITLE2=So Long, Marianne
TTITLE3=Bird on the Wire
TTITLE4=Lady Midnight
TTITLE5=The Partisan
TTITLE6=Hey, That's No Way to Say Goodbye
TTITLE7=Famous Blue Raincoat
TTITLE8=Last Year's Man
TTITLE9=Chelsea Hotel No. 2
TTITLE10=Who By Fire
TTITLE11=Take This Longing
EXTD=Columbia WCK 34077   \nCopyright 1975 CBS Records\nUPC: 7464-3407
EXTD=7-2
EXTT0=
EXTT1=
EXTT2=
EXTT3=
EXTT4=
EXTT5=
EXTT6=
EXTT7=
EXTT8=
EXTT9=
EXTT10=
EXTT11=
PLAYORDER=
